<svg width="104" xmlns="http://www.w3.org/2000/svg" height="94" id="screenshot-eeeddbbf-648a-8098-8007-272651512ec1" viewBox="0 0 104 94" xmlns:xlink="http://www.w3.org/1999/xlink" fill="none" version="1.1"><g id="shape-eeeddbbf-648a-8098-8007-272651512ec1"><defs><clipPath id="frame-clip-eeeddbbf-648a-8098-8007-272651512ec1-render-1" class="frame-clip frame-clip-def"><rect rx="0" ry="0" x="0" y="0" width="104" height="94" transform="matrix(1.000000, 0.000000, 0.000000, 1.000000, 0.000000, 0.000000)"/></clipPath></defs><g class="frame-container-wrapper"><g class="frame-container-blur"><g class="frame-container-shadows"><g clip-path="url(#frame-clip-eeeddbbf-648a-8098-8007-272651512ec1-render-1)" fill="none"><g class="fills" id="fills-eeeddbbf-648a-8098-8007-272651512ec1"><rect width="104" height="94" class="frame-background" x="0" transform="matrix(1.000000, 0.000000, 0.000000, 1.000000, 0.000000, 0.000000)" style="fill: rgb(0, 0, 0); fill-opacity: 1;" ry="0" rx="0" y="0"/></g><g class="frame-children"><g id="shape-eeeddbbf-648a-8098-8007-272648b706ca"><g class="fills" id="fills-eeeddbbf-648a-8098-8007-272648b706ca"><path d="M45,6C67.07659912109375,6,85,23.92340087890625,85,46C85,68.07659912109375,67.07659912109375,86,45,86C22.92340087890625,86,5,68.07659912109375,5,46C5,23.92340087890625,22.92340087890625,6,45,6" style="fill: rgb(255, 255, 255); fill-opacity: 1;"/></g><g id="strokes-3fdef3a5-2ec9-8097-8007-2b05ba9aefbd-eeeddbbf-648a-8098-8007-272648b706ca" class="strokes"><g class="inner-stroke-shape"><defs><clipPath id="inner-stroke-render-2-eeeddbbf-648a-8098-8007-272648b706ca-0"><use href="#stroke-shape-render-2-eeeddbbf-648a-8098-8007-272648b706ca-0"/></clipPath><path d="M45,6C67.07659912109375,6,85,23.92340087890625,85,46C85,68.07659912109375,67.07659912109375,86,45,86C22.92340087890625,86,5,68.07659912109375,5,46C5,23.92340087890625,22.92340087890625,6,45,6" id="stroke-shape-render-2-eeeddbbf-648a-8098-8007-272648b706ca-0" style="fill: none; stroke-width: 2; stroke: rgb(0, 0, 0); stroke-opacity: 0.6;"/></defs><use href="#stroke-shape-render-2-eeeddbbf-648a-8098-8007-272648b706ca-0" clip-path="url('#inner-stroke-render-2-eeeddbbf-648a-8098-8007-272648b706ca-0')"/></g></g></g><g id="shape-eeeddbbf-648a-8098-8007-272648b706cb"><g class="fills" id="fills-eeeddbbf-648a-8098-8007-272648b706cb"><ellipse cx="45.50000000000006" cy="45.5" rx="27.500000000000057" ry="27.5" transform="matrix(1.000000, 0.000000, 0.000000, 1.000000, 0.000000, 0.000000)" style="fill: rgb(0, 0, 0); fill-opacity: 1;"/></g></g><g id="shape-eeeddbbf-648a-8098-8007-272648b706cc"><g class="fills" id="fills-eeeddbbf-648a-8098-8007-272648b706cc"><ellipse cx="37.5" cy="41.5" rx="7.5" ry="7.5" transform="matrix(1.000000, 0.000000, 0.000000, 1.000000, 0.000000, 0.000000)" style="fill: rgb(255, 157, 0); fill-opacity: 1;"/></g></g><g id="shape-eeeddbbf-648a-8098-8007-272648b706cd"><g class="fills" id="fills-eeeddbbf-648a-8098-8007-272648b706cd"><path d="M65,93C51,55,51,55,51,55L93,67L65,93" style="fill: rgb(255, 157, 0); fill-opacity: 1;"/></g><g id="strokes-3fdef3a5-2ec9-8097-8007-2b05ba9ca945-eeeddbbf-648a-8098-8007-272648b706cd" class="strokes"><g class="inner-stroke-shape"><defs><clipPath id="inner-stroke-render-5-eeeddbbf-648a-8098-8007-272648b706cd-0"><use href="#stroke-shape-render-5-eeeddbbf-648a-8098-8007-272648b706cd-0"/></clipPath><path d="M65,93C51,55,51,55,51,55L93,67L65,93" id="stroke-shape-render-5-eeeddbbf-648a-8098-8007-272648b706cd-0" style="fill: none; stroke-width: 4; stroke: rgb(255, 157, 0); stroke-opacity: 1;"/></defs><use href="#stroke-shape-render-5-eeeddbbf-648a-8098-8007-272648b706cd-0" clip-path="url('#inner-stroke-render-5-eeeddbbf-648a-8098-8007-272648b706cd-0')"/></g></g></g></g></g></g></g></g></g></svg>